999
dxfrw 0.6.3
  0
SECTION
  2
HEADER
  9
$ACADVER
  1
AC1021
  9
$DWGCODEPAGE
  3
ANSI_1252
  9
$INSBASE
 10
0
 20
0
 30
0
  9
$EXTMIN
 10
1e+20
 20
1e+20
 30
1e+20
  9
$EXTMAX
 10
-1e+20
 20
-1e+20
 30
-1e+20
  9
$LIMMIN
 10
0
 20
0
  9
$LIMMAX
 10
420
 20
297
  9
$ORTHOMODE
 70
    0
  9
$REGENMODE
 70
    1
  9
$FILLMODE
 70
    1
  9
$QTEXTMODE
 70
    0
  9
$MIRRTEXT
 70
    0
  9
$LTSCALE
 40
1
  9
$ATTMODE
 70
    0
  9
$TEXTSIZE
 40
2.5
  9
$TRACEWID
 40
15.68
  9
$TEXTSTYLE
  7
STANDARD
  9
$CLAYER
  8
0
  9
$CELTYPE
  6
BYLAYER
  9
$CECOLOR
 62
  256
  9
$CELTSCALE
 40
1
  9
$DISPSILH
 70
    0
  9
$DIMSCALE
 40
1
  9
$DIMASZ
 40
2.5
  9
$DIMEXO
 40
0.625
  9
$DIMDLI
 40
3.75
  9
$DIMRND
 40
0
  9
$DIMDLE
 40
0
  9
$DIMEXE
 40
1.25
  9
$DIMTP
 40
0
  9
$DIMTM
 40
0
  9
$DIMTXT
 40
2.5
  9
$DIMCEN
 40
2.5
  9
$DIMTSZ
 40
0
  9
$DIMTOL
 70
    0
  9
$DIMLIM
 70
    0
  9
$DIMTIH
 70
    0
  9
$DIMTOH
 70
    0
  9
$DIMSE1
 70
    0
  9
$DIMSE2
 70
    0
  9
$DIMTAD
 70
    1
  9
$DIMZIN
 70
    8
  9
$DIMBLK
  1

  9
$DIMASO
 70
    1
  9
$DIMSHO
 70
    1
  9
$DIMPOST
  1

  9
$DIMAPOST
  1

  9
$DIMALT
 70
    0
  9
$DIMALTD
 70
    3
  9
$DIMALTF
 40
0.03937
  9
$DIMLFAC
 40
1
  9
$DIMTOFL
 70
    1
  9
$DIMTVP
 40
0
  9
$DIMTIX
 70
    0
  9
$DIMSOXD
 70
    0
  9
$DIMSAH
 70
    0
  9
$DIMBLK1
  1

  9
$DIMBLK2
  1

  9
$DIMSTYLE
  2
STANDARD
  9
$DIMCLRD
 70
    0
  9
$DIMCLRE
 70
    0
  9
$DIMCLRT
 70
    0
  9
$DIMTFAC
 40
1
  9
$DIMGAP
 40
0.625
  9
$DIMJUST
 70
    0
  9
$DIMSD1
 70
    0
  9
$DIMSD2
 70
    0
  9
$DIMTOLJ
 70
    0
  9
$DIMTZIN
 70
    8
  9
$DIMALTZ
 70
    0
  9
$DIMALTTZ
 70
    0
  9
$DIMUPT
 70
    0
  9
$DIMDEC
 70
    2
  9
$DIMTDEC
 70
    2
  9
$DIMALTU
 70
    2
  9
$DIMALTTD
 70
    3
  9
$DIMTXSTY
  7
STANDARD
  9
$DIMAUNIT
 70
    0
  9
$DIMADEC
 70
    0
  9
$DIMALTRND
 40
0
  9
$DIMAZIN
 70
    0
  9
$DIMDSEP
 70
   44
  9
$DIMATFIT
 70
    3
  9
$DIMFRAC
 70
    0
  9
$DIMLDRBLK
  1
STANDARD
  9
$DIMLUNIT
 70
    2
  9
$DIMLWD
 70
   -2
  9
$DIMLWE
 70
   -2
  9
$DIMTMOVE
 70
    0
  9
$DIMFXL
 40
1
  9
$DIMFXLON
 70
    0
  9
$DIMJOGANG
 40
0.7854
  9
$DIMTFILL
 70
    0
  9
$DIMTFILLCLR
 70
    0
  9
$DIMARCSYM
 70
    0
  9
$DIMLTYPE
  6

  9
$DIMLTEX1
  6

  9
$DIMLTEX2
  6

  9
$LUNITS
 70
    2
  9
$LUPREC
 70
    4
  9
$SKETCHINC
 40
1
  9
$FILLETRAD
 40
0
  9
$AUNITS
 70
    0
  9
$AUPREC
 70
    2
  9
$MENU
  1
.
  9
$ELEVATION
 40
0
  9
$PELEVATION
 40
0
  9
$THICKNESS
 40
0
  9
$LIMCHECK
 70
    0
  9
$CHAMFERA
 40
0
  9
$CHAMFERB
 40
0
  9
$CHAMFERC
 40
0
  9
$CHAMFERD
 40
0
  9
$SKPOLY
 70
    0
  9
$USRTIMER
 70
    1
  9
$ANGBASE
 50
0
  9
$ANGDIR
 70
    0
  9
$PDMODE
 70
   34
  9
$PDSIZE
 40
0
  9
$PLINEWID
 40
0
  9
$SPLFRAME
 70
    0
  9
$SPLINETYPE
 70
    2
  9
$SPLINESEGS
 70
    8
  9
$HANDSEED
  5
20000
  9
$SURFTAB1
 70
    6
  9
$SURFTAB2
 70
    6
  9
$SURFTYPE
 70
    6
  9
$SURFU
 70
    6
  9
$SURFV
 70
    6
  9
$UCSBASE
  2

  9
$UCSNAME
  2

  9
$UCSORG
 10
0
 20
0
 30
0
  9
$UCSXDIR
 10
1
 20
0
 30
0
  9
$UCSYDIR
 10
0
 20
1
 30
0
  9
$UCSORTHOREF
  2

  9
$UCSORTHOVIEW
 70
    0
  9
$UCSORGTOP
 10
0
 20
0
 30
0
  9
$UCSORGBOTTOM
 10
0
 20
0
 30
0
  9
$UCSORGLEFT
 10
0
 20
0
 30
0
  9
$UCSORGRIGHT
 10
0
 20
0
 30
0
  9
$UCSORGFRONT
 10
0
 20
0
 30
0
  9
$UCSORGBACK
 10
0
 20
0
 30
0
  9
$PUCSBASE
  2

  9
$PUCSNAME
  2

  9
$PUCSORG
 10
0
 20
0
 30
0
  9
$PUCSXDIR
 10
1
 20
0
 30
0
  9
$PUCSYDIR
 10
0
 20
1
 30
0
  9
$PUCSORTHOREF
  2

  9
$PUCSORTHOVIEW
 70
    0
  9
$PUCSORGTOP
 10
0
 20
0
 30
0
  9
$PUCSORGBOTTOM
 10
0
 20
0
 30
0
  9
$PUCSORGLEFT
 10
0
 20
0
 30
0
  9
$PUCSORGRIGHT
 10
0
 20
0
 30
0
  9
$PUCSORGFRONT
 10
0
 20
0
 30
0
  9
$PUCSORGBACK
 10
0
 20
0
 30
0
  9
$USERI1
 70
    0
  9
$USERI2
 70
    0
  9
$USERI3
 70
    0
  9
$USERI4
 70
    0
  9
$USERI5
 70
    0
  9
$USERR1
 40
0
  9
$USERR2
 40
0
  9
$USERR3
 40
0
  9
$USERR4
 40
0
  9
$USERR5
 40
0
  9
$WORLDVIEW
 70
    1
  9
$SHADEDGE
 70
    3
  9
$SHADEDIF
 70
   70
  9
$TILEMODE
 70
    1
  9
$MAXACTVP
 70
   64
  9
$PINSBASE
 10
0
 20
0
 30
0
  9
$PLIMCHECK
 70
    0
  9
$PEXTMIN
 10
0
 20
0
 30
0
  9
$PEXTMAX
 10
0
 20
0
 30
0
  9
$PLIMMIN
 10
0
 20
0
  9
$PLIMMAX
 10
297
 20
210
  9
$UNITMODE
 70
    0
  9
$VISRETAIN
 70
    1
  9
$PLINEGEN
 70
    0
  9
$PSLTSCALE
 70
    1
  9
$TREEDEPTH
 70
 3020
  9
$CMLSTYLE
  2
Standard
  9
$CMLJUST
 70
    0
  9
$CMLSCALE
 40
20
  9
$PROXYGRAPHICS
 70
    1
  9
$MEASUREMENT
 70
    1
  9
$CELWEIGHT
370
   -1
  9
$ENDCAPS
280
    0
  9
$JOINSTYLE
280
    0
  9
$LWDISPLAY
290
    0
  9
$INSUNITS
 70
    0
  9
$HYPERLINKBASE
  1

  9
$STYLESHEET
  1

  9
$XEDIT
290
    1
  9
$CEPSNTYPE
380
    0
  9
$PSTYLEMODE
290
    1
  9
$EXTNAMES
290
    1
  9
$PSVPSCALE
 40
0
  9
$OLESTARTUP
290
    0
  9
$SORTENTS
280
  127
  9
$INDEXCTL
280
    0
  9
$HIDETEXT
280
    1
  9
$XCLIPFRAME
290
    0
  9
$HALOGAP
280
    0
  9
$OBSCOLOR
 70
  257
  9
$OBSLTYPE
280
    0
  9
$INTERSECTIONDISPLAY
280
    0
  9
$INTERSECTIONCOLOR
 70
  257
  9
$DIMASSOC
280
    1
  9
$PROJECTNAME
  1

  9
$CAMERADISPLAY
290
    0
  9
$LENSLENGTH
 40
50
  9
$CAMERAHEIGHT
 40
0
  9
$STEPSPERSEC
 40
2
  9
$STEPSIZE
 40
50
  9
$3DDWFPREC
 40
2
  9
$PSOLWIDTH
 40
5
  9
$PSOLHEIGHT
 40
80
  9
$LOFTANG1
 40
1.570796326794897
  9
$LOFTANG2
 40
1.570796326794897
  9
$LOFTMAG1
 40
0
  9
$LOFTMAG2
 40
0
  9
$LOFTPARAM
 70
    7
  9
$LOFTNORMALS
280
    1
  9
$LATITUDE
 40
1
  9
$LONGITUDE
 40
1
  9
$NORTHDIRECTION
 40
0
  9
$TIMEZONE
 70
-8000
  9
$LIGHTGLYPHDISPLAY
280
    1
  9
$TILEMODELIGHTSYNCH
280
    1
  9
$SOLIDHIST
280
    1
  9
$SHOWHIST
280
    1
  9
$DWFFRAME
280
    2
  9
$DGNFRAME
280
    0
  9
$REALWORLDSCALE
290
    1
  9
$INTERFERECOLOR
 62
    1
  9
$CSHADOW
280
    0
  9
$SHADOWPLANELOCATION
 40
0
  0
ENDSEC
  0
SECTION
  2
CLASSES
  0
ENDSEC
  0
SECTION
  2
TABLES
  0
TABLE
  2
VPORT
  5
8
330
0
100
AcDbSymbolTable
 70
    1
  0
VPORT
  5
31
330
2
100
AcDbSymbolTableRecord
100
AcDbViewportTableRecord
  2
*ACTIVE
 70
    0
 10
0
 20
0
 11
1
 21
1
 12
0.651828
 22
-0.16
 13
0
 23
0
 14
10
 24
10
 15
10
 25
10
 16
0
 26
0
 36
1
 17
0
 27
0
 37
0
 40
5.13732
 41
2.4426877
 42
50
 43
0
 44
0
 50
0
 51
0
 71
    0
 72
  100
 73
    1
 74
    3
 75
    0
 76
    0
 77
    0
 78
    0
281
    0
 65
    1
110
0
120
0
130
0
111
1
121
0
131
0
112
0
122
1
132
0
 79
    0
146
0
348
10020
 60
    7
 61
    5
292
1
282
    1
141
0
142
0
 63
  250
421
3358443
  0
ENDTAB
  0
TABLE
  2
LTYPE
  5
5
330
0
100
AcDbSymbolTable
 70
    4
  0
LTYPE
  5
14
330
5
100
AcDbSymbolTableRecord
100
AcDbLinetypeTableRecord
  2
ByBlock
 70
    0
  3

 72
   65
 73
    0
 40
0
  0
LTYPE
  5
15
330
5
100
AcDbSymbolTableRecord
100
AcDbLinetypeTableRecord
  2
ByLayer
 70
    0
  3

 72
   65
 73
    0
 40
0
  0
LTYPE
  5
16
330
5
100
AcDbSymbolTableRecord
100
AcDbLinetypeTableRecord
  2
Continuous
 70
    0
  3
Solid line
 72
   65
 73
    0
 40
0
  0
LTYPE
  5
32
330
5
100
AcDbSymbolTableRecord
100
AcDbLinetypeTableRecord
  2
DASHED
 70
    0
  3

 72
   65
 73
    2
 40
3
 49
1
 74
    0
 49
-2
 74
    0
  0
LTYPE
  5
33
330
5
100
AcDbSymbolTableRecord
100
AcDbLinetypeTableRecord
  2
DASHED
 70
    0
  3

 72
   65
 73
    2
 40
2
 49
1
 74
    0
 49
-1
 74
    0
  0
LTYPE
  5
34
330
5
100
AcDbSymbolTableRecord
100
AcDbLinetypeTableRecord
  2
DASHEDX2
 70
    0
  3

 72
   65
 73
    2
 40
3
 49
2
 74
    0
 49
-1
 74
    0
  0
LTYPE
  5
35
330
5
100
AcDbSymbolTableRecord
100
AcDbLinetypeTableRecord
  2
DASHDOT
 70
    0
  3

 72
   65
 73
    4
 40
3
 49
1
 74
    0
 49
-1
 74
    0
 49
0
 74
    0
 49
-1
 74
    0
  0
LTYPE
  5
36
330
5
100
AcDbSymbolTableRecord
100
AcDbLinetypeTableRecord
  2
DIVIDE
 70
    0
  3

 72
   65
 73
    6
 40
4
 49
1
 74
    0
 49
-1
 74
    0
 49
0
 74
    0
 49
-1
 74
    0
 49
0
 74
    0
 49
-1
 74
    0
  0
LTYPE
  5
37
330
5
100
AcDbSymbolTableRecord
100
AcDbLinetypeTableRecord
  2
DOT
 70
    0
  3

 72
   65
 73
    2
 40
1
 49
1
 74
    0
 49
0
 74
    0
  0
ENDTAB
  0
TABLE
  2
LAYER
  5
2
330
0
100
AcDbSymbolTable
 70
    1
  0
LAYER
  5
38
330
2
100
AcDbSymbolTableRecord
100
AcDbLayerTableRecord
  2
dimensions
 70
    0
 62
    7
  6
CONTINUOUS
370
   -3
390
F
  0
LAYER
  5
39
330
2
100
AcDbSymbolTableRecord
100
AcDbLayerTableRecord
  2
text
 70
    0
 62
    7
  6
CONTINUOUS
370
   -3
390
F
  0
LAYER
  5
3A
330
2
100
AcDbSymbolTableRecord
100
AcDbLayerTableRecord
  2
s005-#def-solid-edge
 70
    0
 62
    7
  6
CONTINUOUS
370
   -3
390
F
  0
LAYER
  5
10
330
2
100
AcDbSymbolTableRecord
100
AcDbLayerTableRecord
  2
0
 70
    0
 62
    7
  6
CONTINUOUS
370
   -3
390
F
  0
ENDTAB
  0
TABLE
  2
STYLE
  5
3
330
0
100
AcDbSymbolTable
 70
    3
  0
STYLE
  5
3B
330
2
100
AcDbSymbolTableRecord
100
AcDbTextStyleTableRecord
  2
unicode
 70
    0
 40
0
 41
1
 50
0
 71
    0
 42
1
  3
unicode
  4

  0
STYLE
  5
3C
330
2
100
AcDbSymbolTableRecord
100
AcDbTextStyleTableRecord
  2
Standard
 70
    0
 40
0
 41
1
 50
0
 71
    0
 42
1
  3
txt
  4

  0
ENDTAB
  0
TABLE
  2
VIEW
  5
6
330
0
100
AcDbSymbolTable
 70
    0
  0
ENDTAB
  0
TABLE
  2
UCS
  5
7
330
0
100
AcDbSymbolTable
 70
    0
  0
ENDTAB
  0
TABLE
  2
APPID
  5
9
330
0
100
AcDbSymbolTable
 70
    1
  0
APPID
  5
12
330
9
100
AcDbSymbolTableRecord
100
AcDbRegAppTableRecord
  2
ACAD
 70
    0
  0
ENDTAB
  0
TABLE
  2
DIMSTYLE
  5
A
330
0
100
AcDbSymbolTable
 70
    1
100
AcDbDimStyleTable
 71
    1
  0
DIMSTYLE
105
3D
330
A
100
AcDbSymbolTableRecord
100
AcDbDimStyleTableRecord
  2
Standard
 70
    0
 40
1
 41
2.5
 42
0.625
 43
3.75
 44
1.25
 45
0
 46
0
 47
0
 48
0
140
2.5
141
2.5
142
0
143
0.03937007874015748
144
1
145
0
146
1
147
0.625
148
0
 71
    0
 72
    0
 73
    0
 74
    0
 75
    0
 76
    0
 77
    1
 78
    8
 79
    0
170
    0
171
    3
172
    1
173
    0
174
    0
175
    0
176
    0
177
    0
178
    0
179
    0
271
    2
272
    2
273
    2
274
    3
275
    0
276
    0
277
    2
278
   44
279
    0
280
    0
281
    0
282
    0
283
    0
284
    8
285
    0
286
    0
288
    0
289
    3
341

371
   -2
372
   -2
  0
ENDTAB
  0
TABLE
  2
BLOCK_RECORD
  5
1
330
0
100
AcDbSymbolTable
 70
    2
  0
BLOCK_RECORD
  5
1F
330
1
100
AcDbSymbolTableRecord
100
AcDbBlockTableRecord
  2
*Model_Space
 70
    0
280
    1
281
    0
  0
BLOCK_RECORD
  5
1E
330
1
100
AcDbSymbolTableRecord
100
AcDbBlockTableRecord
  2
*Paper_Space
 70
    0
280
    1
281
    0
  0
ENDTAB
  0
ENDSEC
  0
SECTION
  2
BLOCKS
  0
BLOCK
  5
20
330
1F
100
AcDbEntity
  8
0
100
AcDbBlockBegin
  2
*Model_Space
 70
    0
 10
0
 20
0
 30
0
  3
*Model_Space
  1

  0
ENDBLK
  5
21
330
1F
100
AcDbEntity
  8
0
100
AcDbBlockEnd
  0
BLOCK
  5
1C
330
1B
100
AcDbEntity
  8
0
100
AcDbBlockBegin
  2
*Paper_Space
 70
    0
 10
0
 20
0
 30
0
  3
*Paper_Space
  1

  0
ENDBLK
  5
1D
330
1F
100
AcDbEntity
  8
0
100
AcDbBlockEnd
  0
ENDSEC
  0
SECTION
  2
ENTITIES
  0
POLYLINE
  5
3E
100
AcDbEntity
  8
s005-#def-solid-edge
  6
CONTINUOUS
 62
  254
420
13421772
370
   25
100
AcDb2dPolyline
 10
0
 20
0
 30
0
 70
    0
  0
VERTEX
  5
3F
100
AcDbEntity
  8
s005-#def-solid-edge
  6
CONTINUOUS
 62
  254
420
13421772
370
   25
100
AcDbVertex
100
AcDb2dVertex
 10
-10.02080817535266
 20
145.4114440504198
 30
0
  0
VERTEX
  5
40
100
AcDbEntity
  8
s005-#def-solid-edge
  6
CONTINUOUS
 62
  254
420
13421772
370
   25
100
AcDbVertex
100
AcDb2dVertex
 10
-10.02665017535266
 20
150.4000040504199
 30
0
  0
VERTEX
  5
41
100
AcDbEntity
  8
s005-#def-solid-edge
  6
CONTINUOUS
 62
  254
420
13421772
370
   25
100
AcDbVertex
100
AcDb2dVertex
 10
-10.10335817535265
 20
150.5752640504199
 30
0
  0
VERTEX
  5
42
100
AcDbEntity
  8
s005-#def-solid-edge
  6
CONTINUOUS
 62
  254
420
13421772
370
   25
100
AcDbVertex
100
AcDb2dVertex
 10
-10.54582617535266
 20
151.0019840504199
 30
0
  0
VERTEX
  5
43
100
AcDbEntity
  8
s005-#def-solid-edge
  6
CONTINUOUS
 62
  254
420
13421772
370
   25
100
AcDbVertex
100
AcDb2dVertex
 10
-10.10335817535265
 20
151.4287040504199
 30
0
  0
VERTEX
  5
44
100
AcDbEntity
  8
s005-#def-solid-edge
  6
CONTINUOUS
 62
  254
420
13421772
370
   25
100
AcDbVertex
100
AcDb2dVertex
 10
-10.02665017535266
 20
151.6039640504198
 30
0
  0
VERTEX
  5
45
100
AcDbEntity
  8
s005-#def-solid-edge
  6
CONTINUOUS
 62
  254
420
13421772
370
   25
100
AcDbVertex
100
AcDb2dVertex
 10
-10.03198417535267
 20
156.5874440504199
 30
0
  0
SEQEND
  5
46
100
AcDbEntity
  8
s005-#def-solid-edge
  6
CONTINUOUS
 62
  254
420
13421772
370
   25
  0
LINE
  5
47
100
AcDbEntity
  8
s005-#def-solid-edge
  6
CONTINUOUS
 62
  254
420
13421772
370
   25
100
AcDbLine
 10
-7.545832175352668
 20
-6.180327949579965
 11
-2.109470175352673
 21
-3.221989949579964
  0
LINE
  5
48
100
AcDbEntity
  8
s005-#def-solid-edge
  6
CONTINUOUS
 62
  254
420
13421772
370
   25
100
AcDbLine
 10
0
 20
0
 11
-0.1046481753526507
 21
117.9626800504199
  0
LINE
  5
49
100
AcDbEntity
  8
s005-#def-solid-edge
  6
CONTINUOUS
 62
  254
420
13421772
370
   25
100
AcDbLine
 10
-1.835404175352668
 20
121.2151500504198
 11
-7.707122175352652
 21
124.7457500504198
  0
LINE
  5
4A
100
AcDbEntity
  8
s005-#def-solid-edge
  6
CONTINUOUS
 62
  254
420
13421772
370
   25
100
AcDbLine
 10
-8.44042017535266
 20
125.8316000504199
 11
-8.458200175352662
 21
144.5935640504198
  0
LINE
  5
4B
100
AcDbEntity
  8
s005-#def-solid-edge
  6
CONTINUOUS
 62
  254
420
13421772
370
   25
100
AcDbLine
 10
-8.886698175352659
 20
145.0050440504198
 11
-9.571736175352644
 21
145.0050440504198
  0
LINE
  5
4C
100
AcDbEntity
  8
s005-#def-solid-edge
  6
CONTINUOUS
 62
  254
420
13421772
370
   25
100
AcDbLine
 10
-9.595104175352663
 20
156.9989240504198
 11
-8.267954175352649
 21
156.9989240504198
  0
LINE
  5
4D
100
AcDbEntity
  8
s005-#def-solid-edge
  6
CONTINUOUS
 62
  254
420
13421772
370
   25
100
AcDbLine
 10
-6.387084175352658
 20
159.0004440504198
 11
-6.395466175352656
 21
169.8310040504198
  0
LINE
  5
4E
100
AcDbEntity
  8
s005-#def-solid-edge
  6
CONTINUOUS
 62
  254
420
13421772
370
   25
100
AcDbLine
 10
-10.89863217535266
 20
170.0265840504198
 11
-12.29207617535265
 21
163.3743240504198
  0
LINE
  5
4F
100
AcDbEntity
  8
s005-#def-solid-edge
  6
CONTINUOUS
 62
  254
420
13421772
370
   25
100
AcDbLine
 10
-14.10690617535269
 20
161.9366840504198
 11
-15.3992581753527
 21
161.9341440504199
  0
LINE
  5
50
100
AcDbEntity
  8
s005-#def-solid-edge
  6
CONTINUOUS
 62
  254
420
13421772
370
   25
100
AcDbLine
 10
-16.80768817535267
 20
160.5854040504198
 11
-16.68246617535268
 21
21.00961005042002
  0
LINE
  5
51
100
AcDbEntity
  8
s005-#def-solid-edge
  6
CONTINUOUS
 62
  254
420
13421772
370
   25
100
AcDbLine
 10
-15.63928817535268
 20
20.01062805042003
 11
-13.77873817535268
 21
20.01342205042001
  0
LINE
  5
52
100
AcDbEntity
  8
s005-#def-solid-edge
  6
CONTINUOUS
 62
  254
420
13421772
370
   25
100
AcDbLine
 10
-11.90904417535267
 20
21.61870205042002
 11
-10.84375309058427
 21
26.83260421522217
  0
LINE
  5
53
100
AcDbEntity
  8
s005-#def-solid-edge
  6
CONTINUOUS
 62
  254
420
13421772
370
   25
100
AcDbLine
 10
-6.193252886866116
 20
26.35762256574521
 11
-6.245098175352656
 21
0.7152640504200285
  0
LINE
  5
54
100
AcDbEntity
  8
s005-#def-solid-edge
  6
CONTINUOUS
 62
  254
420
13421772
370
   25
100
AcDbLine
 10
-6.509766175352659
 20
0.2811780504200136
 11
-8.063992175352656
 21
-0.5664199495799735
  0
LINE
  5
55
100
AcDbEntity
  8
s005-#def-solid-edge
  6
CONTINUOUS
 62
  254
420
13421772
370
   25
100
AcDbLine
 10
-8.32713617535266
 20
-1.00202994957997
 11
-8.323326175352648
 21
-5.744971949579963
  0
ARC
  5
56
100
AcDbEntity
  8
s005-#def-solid-edge
  6
CONTINUOUS
 62
  254
420
13421772
370
   25
100
AcDbCircle
 10
-4.055097123201111
 20
0.3533731108476021
 40
4.070464989907666
100
AcDbArc
 50
-61.44602633716329
 51
-4.980341737797963
  0
ARC
  5
57
100
AcDbEntity
  8
s005-#def-solid-edge
  6
CONTINUOUS
 62
  254
420
13421772
370
   25
100
AcDbCircle
 10
-4.026078299655536
 20
117.9626800504199
 40
3.921430124302892
100
AcDbArc
 50
2.283973371728366e-12
 51
56.03809049613125
  0
ARC
  5
58
100
AcDbEntity
  8
s005-#def-solid-edge
  6
CONTINUOUS
 62
  254
420
13421772
370
   25
100
AcDbCircle
 10
-6.906852488664882
 20
126.0767204886579
 40
1.55303376617988
100
AcDbArc
 50
-170.918844711043
 51
-121.0171387358575
  0
ARC
  5
59
100
AcDbEntity
  8
s005-#def-solid-edge
  6
CONTINUOUS
 62
  254
420
13421772
370
   25
100
AcDbCircle
 10
-8.886698175352659
 20
144.5761941349877
 40
0.4288499154320912
100
AcDbArc
 50
2.321313649924877
 51
90
  0
ARC
  5
5A
100
AcDbEntity
  8
s005-#def-solid-edge
  6
CONTINUOUS
 62
  254
420
13421772
370
   25
100
AcDbCircle
 10
-9.571736175352566
 20
145.4563563304199
 40
0.4513122800000815
100
AcDbArc
 50
-174.2887651381679
 51
-90.00000000104052
  0
ARC
  5
5B
100
AcDbEntity
  8
s005-#def-solid-edge
  6
CONTINUOUS
 62
  254
420
13421772
370
   25
100
AcDbCircle
 10
-9.595104175352663
 20
156.5612600998026
 40
0.4376639506172884
100
AcDbArc
 50
90
 51
176.5701396074415
  0
ARC
  5
5C
100
AcDbEntity
  8
s005-#def-solid-edge
  6
CONTINUOUS
 62
  254
420
13421772
370
   25
100
AcDbCircle
 10
-8.267954175352514
 20
158.8834303924247
 40
1.884506342004869
100
AcDbArc
 50
-90.00000000000399
 51
-43.22003667718206
  0
ARC
  5
5D
100
AcDbEntity
  8
s005-#def-solid-edge
  6
CONTINUOUS
 62
  254
420
13421772
370
   25
100
AcDbCircle
 10
-8.267954175352656
 20
158.8834303924249
 40
1.884506342005088
100
AcDbArc
 50
-43.22003667718329
 51
3.55992664563324
  0
ARC
  5
5E
100
AcDbEntity
  8
s005-#def-solid-edge
  6
CONTINUOUS
 62
  254
420
13421772
370
   25
100
AcDbCircle
 10
-8.670977277499988
 20
169.3778572673415
 40
2.320192402153324
100
AcDbArc
 50
11.26258182718222
 51
87.51311175662283
  0
ARC
  5
5F
100
AcDbEntity
  8
s005-#def-solid-edge
  6
CONTINUOUS
 62
  254
420
13421772
370
   25
100
AcDbCircle
 10
-8.670977277500052
 20
169.3778572673415
 40
2.320192402153292
100
AcDbArc
 50
87.51311175686804
 51
163.7636416863088
  0
ARC
  5
60
100
AcDbEntity
  8
s005-#def-solid-edge
  6
CONTINUOUS
 62
  254
420
13421772
370
   25
100
AcDbCircle
 10
-14.10690617535273
 20
163.8009952474164
 40
1.864311196996556
100
AcDbArc
 50
-89.99999999999891
 51
-13.23012032719119
  0
ARC
  5
61
100
AcDbEntity
  8
s005-#def-solid-edge
  6
CONTINUOUS
 62
  254
420
13421772
370
   25
100
AcDbCircle
 10
-15.45768332864411
 20
160.5854040504202
 40
1.350004846708405
100
AcDbArc
 50
87.51959368707259
 51
133.7597968435443
  0
ARC
  5
62
100
AcDbEntity
  8
s005-#def-solid-edge
  6
CONTINUOUS
 62
  254
420
13421772
370
   25
100
AcDbCircle
 10
-15.45768332864412
 20
160.5854040504198
 40
1.35000484670859
100
AcDbArc
 50
133.7597968435342
 51
180
  0
ARC
  5
63
100
AcDbEntity
  8
s005-#def-solid-edge
  6
CONTINUOUS
 62
  254
420
13421772
370
   25
100
AcDbCircle
 10
-15.68168721126123
 20
21.01050887562309
 40
1.000779367720324
100
AcDbArc
 50
-179.9485412077395
 51
-133.7602102467788
  0
ARC
  5
64
100
AcDbEntity
  8
s005-#def-solid-edge
  6
CONTINUOUS
 62
  254
420
13421772
370
   25
100
AcDbCircle
 10
-15.6816872112612
 20
21.01050887562312
 40
1.000779367720378
100
AcDbArc
 50
-133.7602102467769
 51
-87.57187928581759
  0
ARC
  5
65
100
AcDbEntity
  8
s005-#def-solid-edge
  6
CONTINUOUS
 62
  254
420
13421772
370
   25
100
AcDbCircle
 10
-13.7787381753527
 20
21.90489255152763
 40
1.891470501107626
100
AcDbArc
 50
-89.99999999938309
 51
-8.702608498253516
  0
ARC
  5
66
100
AcDbEntity
  8
s005-#def-solid-edge
  6
CONTINUOUS
 62
  254
420
13421772
370
   25
100
AcDbCircle
 10
-8.542274175352667
 20
26.36237196062985
 40
2.349026089790107
100
AcDbArc
 50
84.16828302654443
 51
168.4524100048873
  0
ARC
  5
67
100
AcDbEntity
  8
s005-#def-solid-edge
  6
CONTINUOUS
 62
  254
420
13421772
370
   25
100
AcDbCircle
 10
-8.542274175352672
 20
26.36237196062984
 40
2.349026089790135
100
AcDbArc
 50
-0.115843952825375
 51
84.16828302551518
  0
ARC
  5
68
100
AcDbEntity
  8
s005-#def-solid-edge
  6
CONTINUOUS
 62
  254
420
13421772
370
   25
100
AcDbCircle
 10
-6.753014685328065
 20
0.727218695472313
 40
0.5080571765499681
100
AcDbArc
 50
-61.39413286653478
 51
-1.3483008609116
  0
ARC
  5
69
100
AcDbEntity
  8
s005-#def-solid-edge
  6
CONTINUOUS
 62
  254
420
13421772
370
   25
100
AcDbCircle
 10
-7.822218500684224
 20
-1.009756214277644
 40
0.5049767849701209
100
AcDbArc
 50
118.6058671334766
 51
179.1233267639982
  0
ARC
  5
6A
100
AcDbEntity
  8
s005-#def-solid-edge
  6
CONTINUOUS
 62
  254
420
13421772
370
   25
100
AcDbCircle
 10
-7.797502782162775
 20
-5.717847826152767
 40
0.5265225150906636
100
AcDbArc
 50
-177.0470664306691
 51
-119.2465463839214
  0
ARC
  5
6B
100
AcDbEntity
  8
s005-#def-solid-edge
  6
CONTINUOUS
 62
  254
420
13421772
370
   25
100
AcDbCircle
 10
-7.797502782162768
 20
-5.717847826152783
 40
0.526522515090651
100
AcDbArc
 50
-119.2465463839166
 51
-61.44602633716552
  0
ENDSEC
  0
SECTION
  2
OBJECTS
  0
DICTIONARY
  5
C
330
0
100
AcDbDictionary
281
    1
  3
ACAD_GROUP
350
D
  0
DICTIONARY
  5
D
330
C
100
AcDbDictionary
281
    1
  0
ENDSEC
  0
EOF
