<?xml version="1.0" encoding="UTF-8"?>
<svg id="Layer_01" data-name="Layer 01" xmlns="http://www.w3.org/2000/svg" viewBox="0 0 588.98 791.95">
  <defs>
    <style>
      .cls-1 {
        fill: none;
        stroke: #c80000;
        stroke-linecap: round;
        stroke-linejoin: round;
      }
    </style>
  </defs>
  <path class="cls-1" d="M426.74,735.65v-4.73h-47.62v25.51c16.61-5.43,32.34-12.29,47.62-20.78Z"/>
  <path class="cls-1" d="M372.74,758.43v-27.51h-47.62v37.26c16.23-1.84,31.98-5.06,47.62-9.75Z"/>
  <rect class="cls-1" x="325.12" y="528.42" width="47.62" height="142.12"/>
  <rect class="cls-1" x="379.12" y="528.42" width="47.62" height="61.12"/>
  <rect class="cls-1" x="379.12" y="595.92" width="47.62" height="61.12"/>
  <rect class="cls-1" x="379.12" y="663.42" width="47.62" height="61.12"/>
  <rect class="cls-1" x="325.12" y="676.92" width="47.62" height="47.62"/>
  <rect class="cls-1" x="349.08" y="283.73" width="8.3" height="134.19"/>
  <rect class="cls-1" x="304.01" y="409.59" width="26.52" height="8.32"/>
  <rect class="cls-1" x="358.1" y="436.41" width="8.36" height="8.43"/>
  <rect class="cls-1" x="331.02" y="436.41" width="8.62" height="8.44"/>
  <rect class="cls-1" x="304.05" y="436.37" width="8.54" height="8.46"/>
  <path class="cls-1" d="M348.47,463.3h-44.69c.02,24.12.02,26.52.27,27.9.25,1.38.76,1.73,1.79,2.45s2.59,1.82,3.9,3.91,2.35,5.18,3.29,10.38h79.43c-30.67-15.71-43.99-32.68-43.99-44.64Z"/>
  <path class="cls-1" d="M294.49,346.12c-4.31,0-4.31-1.53-3.23-3.2s3.23-3.48,3.23-16.05c0,12.57,2.15,14.38,3.23,16.05s1.08,3.2-3.23,3.2Z"/>
  <path class="cls-1" d="M294.49,364.33c-5.54,0-10.2-.04-14.4-.07-4.2-.03-7.94-.05-10.07-1.69-2.13-1.64-2.64-4.9-2.7-8.45-.05-3.55.36-7.39.83-9.94s.99-3.84,2.77-4.86,4.82-1.78,5-19.67h-17.49v71.24h26.75c0-6.02,0-6.49,0-7.81s0-3.47,1.28-5.65,3.83-4.37,8.02-4.37,6.74,2.19,8.02,4.37c1.28,2.17,1.28,4.33,1.28,5.65s0,1.79,0,7.81h26.75v-71.24h-17.49c.18,17.88,3.21,18.65,5,19.67s2.3,2.3,2.77,4.86.88,6.4.83,9.94c-.05,3.55-.57,6.81-2.7,8.45-2.13,1.64-5.87,1.67-10.07,1.69s-8.86.06-14.4.07Z"/>
  <path class="cls-1" d="M304.2,301.1h26.33v-17.34h-72.09v17.34h26.33c1.53-5.61,4.77-8.56,9.71-8.87,4.95.31,8.18,3.26,9.71,8.87Z"/>
  <path class="cls-1" d="M259.72,265.01c25.48-20.58,27.42-35.32,26.63-45.59-.8-10.27-4.33-16.06-6.97-20.11-2.64-4.05-4.39-6.36-5.18-8.57-.79-2.21-.61-4.31,20.29-21.32,20.91,17.01,21.08,19.11,20.29,21.32-.79,2.21-2.54,4.52-5.18,8.57-2.64,4.05-6.17,9.84-6.97,20.11s1.14,25.01,26.63,45.59h-69.54Z"/>
  <path class="cls-1" d="M240.5,463.3h44.69c-.02,24.12-.02,26.52-.27,27.9-.25,1.38-.76,1.73-1.79,2.45s-2.59,1.82-3.9,3.91-2.35,5.18-3.29,10.38h-79.43c30.67-15.71,43.99-32.68,43.99-44.64Z"/>
  <rect class="cls-1" x="276.39" y="436.37" width="8.54" height="8.46"/>
  <rect class="cls-1" x="249.33" y="436.41" width="8.62" height="8.44"/>
  <rect class="cls-1" x="222.53" y="436.41" width="8.35" height="8.43"/>
  <rect class="cls-1" x="258.44" y="409.59" width="26.52" height="8.32"/>
  <rect class="cls-1" x="231.6" y="283.73" width="8.3" height="134.19"/>
  <path class="cls-1" d="M186.22,244.38c4.75-2.03,6.95-7.53,4.92-12.27s-7.53-6.95-12.27-4.92c-62.28,26.64-113.45,73.98-144.85,134C2.6,421.22-7.1,490.07,6.49,556.45c13.6,66.39,49.66,125.98,102.17,168.81,52.54,42.87,118.02,66.19,185.83,66.19s133.29-23.32,185.83-66.19c52.5-42.83,88.56-102.4,102.16-168.78,13.61-66.4,3.9-135.28-27.53-195.33-31.41-60.01-82.56-107.33-144.83-133.97-4.75-2.03-10.24.17-12.27,4.92s.17,10.24,4.92,12.27c58.32,24.95,106.23,69.27,135.64,125.48,29.41,56.21,38.5,120.69,25.77,182.84-12.73,62.16-46.5,117.96-95.67,158.07-49.2,40.14-110.51,61.98-174.01,61.98s-124.81-21.84-174.01-61.98c-49.16-40.1-82.93-95.89-95.66-158.04-12.74-62.17-3.65-126.67,25.78-182.9,29.41-56.19,77.31-100.5,135.62-125.44Z"/>
  <path class="cls-1" d="M294.49,26.77c-2.31,4.53-4.62,9.06-7.01,13.55-1.05,1.96-2.07,3.93-3.27,5.81-.23.35-.45.71-.72,1.03-.11.13-.21.26-.38.32-.17.06-.32.03-.49,0-.28-.04-.54-.14-.8-.26-.56-.25-1.08-.56-1.6-.88-2.42-1.46-4.73-3.1-7.07-4.68-2.71-1.83-5.38-3.7-8.27-5.26-.89-.48-2.86-1.64-2.83,0,.01.92.32,1.73.58,2.57.46,1.45.97,2.88,1.48,4.32,1.32,3.68,2.69,7.33,4.17,10.95.58,1.4,1.16,2.8,1.81,4.17.42.88.85,1.74,1.39,2.55.62.92,1.3,1.56,2.4,1.91,1.77.56,5.08,1.15,6.91,1.4.87.12,1.75.21,2.63.28.47.04.94.03,1.41.13.3.06.38.23.41.51.07.61.03,1.21.03,1.82,0,1.45.06,2.9,0,4.35,0,.11.02.42-.14.48-.08.03-.14,0-.21-.03-.2-.07-.39-.15-.59-.23-3.84-1.51-7.72-2.75-11.78-3.57-4.03-.82-8.07-1.16-12.17-1.27-4.34-.11-8.69,0-13.03-.04-2.27-.03-4.51-.02-6.75-.54-1.42-.33-2.54-.81-3.49-2-1.04-1.31-1.46-2.78-1.92-4.31-.65-2.17-1.15-4.37-1.63-6.58-.46-2.15-.88-4.3-1.27-6.46-.23-1.29-.49-2.58-.64-3.89-.05-.39-.19-1.04.08-1.45.21-.32.51-.29.81-.34.54-.08,1.09-.1,1.63-.15.88-.08,1.75-.18,2.62-.33,2.37-.4,4.69-.97,7-1.65,2.19-.64,3-.84,3.99-3.11.81-1.84,1.34-3.77,1.91-5.68.9-3.03,1.74-6.08,2.56-9.14.69-2.57,1.36-5.14,2-7.72.42-1.69.88-3.36,1.1-5.09.37-2.87-1.24-1.78-3.01-.51-1.71,1.23-3.32,2.57-4.93,3.92-1.93,1.62-3.84,3.28-5.72,4.96-1.52,1.35-3.03,2.71-4.52,4.11-.76.71-1.51,1.43-2.22,2.19-.25.27-.5.53-.7.84-.06.09-.05.21-.18.25-.07.02-.11-.02-.15-.06-.11-.1-.2-.22-.29-.34-.46-.64-.85-1.33-1.24-2.02-1.98-3.44-3.84-6.94-5.71-10.43-1.59-2.96-3.15-5.93-4.73-8.89-.29-.56-.54-1.13-.93-1.64-.12-.15-.24-.27-.4-.08-.33.39-.49,1.01-.67,1.46-.56,1.42-1.11,2.85-1.66,4.28-1.72,4.41-3.42,8.82-5.29,13.16-.45,1.03-.86,2.07-1.47,3.02-.14.23-.35.63-.72.59-.3-.04-.51-.21-.74-.37-.73-.5-1.42-1.05-2.12-1.59-3.97-3.05-7.93-6.11-12-9.03-1.02-.73-2.05-1.46-3.1-2.15-.74-.48-1.47-.96-2.26-1.35-.71-.35-1.64-.8-1.72.32-.04.61.1,1.17.23,1.74.21.96.48,1.9.74,2.84.77,2.79,1.57,5.57,2.38,8.34.71,2.45,1.43,4.9,2.18,7.34.53,1.73,1.05,3.47,1.66,5.17.53,1.47.9,2.78,2.54,3.52,2.98,1.34,7.39,2.34,10.59,2.73.66.08,1.31.15,1.97.27.44.08.85.14,1.24.42.43.32.51.73.62,1.19.24,1,.34,2.01.46,3.03.58,4.62,1.2,9.21,2.3,13.74,1.35,5.55,3.37,11.1,7.05,15.68,6.13,7.63,14.03,9.48,22.95,10.3,4.9.45,9.82.53,14.73.84,3.9.25,7.73.71,11.56,1.55,2.52.55,4.98,1.25,7.42,2.09,1.29.44,2.58.88,3.82,1.46,1.31.62,1.82,1.02,1.93,2.56.13,1.82.06,3.63.06,5.45,0,3.5,0,7,0,10.5,0,2.89.04,5.77-.04,8.66-.04,1.29-.01,2.46-.89,3.59-.41.53-.91.95-1.41,1.37-.74.63-1.5,1.24-2.23,1.88-1.93,1.67-3.66,3.42-5.02,5.62-1.73,2.81-2.39,5.33-1.7,8.64.49,2.35,1.5,4.36,2.73,6.38,1.9,3.1,4.19,5.83,6.64,8.49-3.77,3.48-7.57,6.9-11.56,10.13-1.66,1.34-3.34,2.63-4.89,4.1-2.47,2.34-4.53,4.87-6.19,7.86-2.58,4.65-3.7,9.69-3.41,14.98.21,3.77.99,7.21,2.58,10.65,1.05,2.28,2.47,4.29,3.87,6.34,1.27,1.86,2.35,3.7,2.87,5.96.67,2.9.52,5.65.08,8.54-1.11,7.16-4.28,13.59-9.05,18.98-4.07,4.6-8.79,8.21-13.74,11.72-1,.71-1.96,1.45-3.02,2.06-.21.12-.68.43-.83.07-.16-.38-.15-.78-.22-1.17-.12-.61-.28-1.21-.49-1.8-.56-1.5-1.41-2.55-2.73-3.45-2.44-1.67-5.83-2.35-8.7-1.31-4.15,1.49-5.32,5-5.63,8.88-.15,1.88-.06,3.76-.16,5.64-.05.85-.1,1.81-1.05,2.26-1.04.49-2.64.46-3.71.48-1.86.03-3.71-.06-5.57.15-2.06.24-3.72.76-5.24,2.31-1.45,1.47-2.35,3.53-2.54,5.57-.19,2.04.33,4.23,1.37,5.99.97,1.63,2.18,2.63,3.92,3.35.62.26,1.25.45,1.9.61.39.1.79.15,1.17.33.27.13.38.31.45.59.11.51.08,1.03.09,1.54.07,4.67.06,9.33.08,14,.04,17.21.04,34.41.04,51.62,0,17.31,0,34.63,0,51.94,0,4.26.02,8.51,0,12.77,0,.84.1,1.57-.86,2-1.36.61-2.78,1.07-4.09,1.81-1.55.88-2.64,1.86-3.26,3.62-.54,1.55-.59,3.11-.66,4.71-.14,3.2-.07,6.39-.07,9.59v9.59c0,1.6,0,3.2,0,4.8.01,1.63.09,3.21.61,4.8.62,1.91,1.56,3.28,3.25,4.41,2.18,1.46,4.97,1.73,7.41,1.84,1.28.06,2.56.05,3.84,0,.76-.02,1.52-.12,2.28-.04.36.03.58.16.45.55-.22.66-.73,1.35-1.08,1.92-2.92,4.75-6.38,8.71-10.73,12.2-6.65,5.34-15.18,9.95-22.82,13.53-3.89,1.83-7.84,3.53-11.81,5.17-2.4.98-4.79,1.98-7.23,2.87-.49.18-.97.37-1.49.46-.23.04-.42.11-.63-.08-.27-.24-.39-1.09-.47-1.38-.45-1.58-1-2.74-2.62-3.47-.64-.29-1.31-.47-2-.62-.43-.09-.85-.07-1.03-.61-.15-.44-.16-.89-.19-1.35-.07-.95-.1-1.9-.14-2.85-.15-3.91-.3-7.82-.46-11.74-.54-13.81-1.11-27.62-1.71-41.42-.76-17.3-1.56-34.59-2.5-51.88-.41-7.51-.85-15.02-1.35-22.53-.37-5.55-.77-11.1-1.33-16.64-.18-1.76-.37-3.51-.63-5.26-.15-.97-.27-1.92-.61-2.86-.11-.3-.31-.8-.59-.41-.16.22-.22.46-.3.71-.13.43-.22.88-.3,1.32-.28,1.48-.45,2.97-.62,4.46-.25,2.24-.46,4.47-.65,6.71-.53,6.28-.95,12.57-1.34,18.86-1.16,18.74-2.06,37.49-2.91,56.25-.77,16.95-1.47,33.91-2.14,50.87-.18,4.64-.35,9.29-.54,13.93-.04.98-.06,1.96-.2,2.94-.06.44-.09.84-.44,1.18-.28.27-.62.33-.97.43-.54.16-1.09.32-1.62.52-1.47.56-2.68,1.24-3.66,2.54-1.33,1.74-1.82,4.55-2.08,6.56-.11.83-.17,1.66-.31,2.48-.07.41-.08.78-.51,1.03-.48.28-.95.19-1.44.19-.98,0-1.95,0-2.93.02-2.26.06-5.16.24-7.34,1.02-1.86.66-3.42,1.76-4.4,3.54-.9,1.62-1.24,3.65-.97,5.47.55,3.77,3.81,6,7.26,6.59,1.62.28,3.22.24,4.84.24h4.85c2.69,0,5.39-.03,8.08,0,.33,0,.65.01.98.04.18.02.36-.02.52.13.22.2.16.43.17.68.03.63.02,1.27.02,1.9v198.97c92.57,61.85,213.28,61.85,305.86,0v-198.97c0-.63-.02-1.27.02-1.9.01-.24-.05-.47.17-.68.16-.15.33-.12.51-.13.33-.03.65-.03.98-.04,2.69-.04,5.39,0,8.08,0h4.85c1.62,0,3.23.04,4.84-.24,3.45-.59,6.71-2.82,7.27-6.59.27-1.82-.07-3.85-.97-5.47-.99-1.77-2.55-2.88-4.4-3.54-2.19-.78-5.08-.97-7.34-1.02-.98-.02-1.96-.02-2.93-.02-.49,0-.96.08-1.44-.19-.43-.25-.44-.62-.51-1.03-.15-.82-.21-1.66-.31-2.48-.26-2.01-.76-4.82-2.08-6.56-.99-1.29-2.19-1.98-3.66-2.54-.53-.2-1.07-.36-1.62-.52-.34-.1-.68-.16-.97-.43-.36-.35-.38-.75-.44-1.18-.14-.98-.16-1.96-.2-2.94-.19-4.64-.36-9.28-.54-13.92-.67-16.95-1.38-33.91-2.14-50.86-.85-18.76-1.74-37.51-2.91-56.25-.39-6.29-.81-12.58-1.34-18.86-.19-2.24-.4-4.48-.65-6.72-.17-1.49-.35-2.98-.62-4.46-.08-.44-.17-.89-.3-1.32-.07-.25-.14-.49-.3-.71-.28-.39-.48.11-.59.41-.34.93-.46,1.89-.61,2.85-.27,1.75-.45,3.5-.63,5.26-.56,5.54-.95,11.08-1.33,16.63-.51,7.51-.94,15.01-1.35,22.53-.94,17.29-1.75,34.58-2.5,51.87-.6,13.82-1.17,27.65-1.72,41.47-.15,3.91-.3,7.82-.46,11.73-.04.95-.07,1.89-.14,2.84-.03.45-.05.9-.19,1.34-.18.54-.61.51-1.04.61-.69.15-1.36.33-2,.62-1.62.74-2.17,1.9-2.61,3.48-.08.28-.2,1.13-.48,1.36-.22.18-.41.11-.64.07-.53-.1-1.02-.29-1.52-.47-2.46-.91-4.88-1.91-7.31-2.91-3.99-1.64-7.95-3.36-11.86-5.2-7.62-3.59-16.16-8.21-22.78-13.57-4.31-3.48-7.73-7.44-10.63-12.16-.34-.55-.85-1.23-1.04-1.88-.12-.4.15-.5.5-.53.78-.06,1.55.03,2.33.05,1.29.04,2.57.04,3.86-.02,2.44-.11,5.2-.39,7.37-1.87,1.68-1.14,2.6-2.52,3.21-4.42.51-1.59.59-3.16.6-4.79.01-1.6,0-3.19,0-4.79v-9.58c0-3.2.07-6.39-.07-9.58-.07-1.6-.12-3.15-.66-4.71-.62-1.76-1.72-2.73-3.27-3.61-1.31-.74-2.72-1.2-4.08-1.81-.97-.43-.85-1.17-.86-2-.02-4.26,0-8.52,0-12.78,0-17.3,0-34.61,0-51.91,0-17.21,0-34.43.04-51.64.01-4.66,0-9.33.08-13.99,0-.51-.02-1.02.09-1.54.06-.28.17-.46.45-.59.38-.17.78-.23,1.17-.33.65-.17,1.28-.36,1.9-.61,1.74-.72,2.95-1.72,3.92-3.35,1.04-1.76,1.56-3.95,1.37-6-.19-2.04-1.1-4.09-2.55-5.56-1.52-1.54-3.18-2.06-5.24-2.3-1.86-.21-3.71-.12-5.57-.15-1.06-.02-2.66.01-3.7-.48-.95-.45-.99-1.43-1.04-2.27-.1-1.89-.01-3.77-.16-5.66-.31-3.89-1.5-7.38-5.65-8.86-2.87-1.02-6.26-.34-8.7,1.34-1.31.9-2.15,1.96-2.71,3.46-.22.58-.37,1.18-.49,1.79-.08.39-.06.78-.22,1.16-.15.36-.63.03-.84-.09-1.07-.62-2.04-1.37-3.04-2.08-4.96-3.51-9.69-7.13-13.75-11.74-4.75-5.39-7.91-11.83-9.01-18.97-.44-2.88-.58-5.62.09-8.52.52-2.25,1.6-4.09,2.87-5.94,1.4-2.05,2.82-4.06,3.87-6.34,1.58-3.44,2.37-6.89,2.57-10.66.29-5.29-.84-10.33-3.42-14.97-1.66-2.99-3.72-5.51-6.19-7.85-1.55-1.47-3.24-2.76-4.89-4.1-3.99-3.22-7.79-6.65-11.55-10.12,2.45-2.65,4.73-5.38,6.63-8.48,1.23-2.01,2.24-4.02,2.73-6.37.7-3.31.05-5.83-1.68-8.64-1.36-2.2-3.08-3.95-5.01-5.63-.74-.64-1.49-1.25-2.24-1.88-.5-.43-1-.85-1.42-1.37-.88-1.12-.87-2.28-.9-3.56-.08-2.87-.03-5.74-.04-8.61,0-3.5,0-7,0-10.51,0-1.83-.07-3.66.06-5.5.11-1.54.58-1.95,1.91-2.58,1.23-.58,2.51-1.01,3.79-1.45,2.43-.84,4.88-1.54,7.39-2.09,3.81-.84,7.64-1.31,11.52-1.56,4.91-.31,9.82-.39,14.72-.84,8.92-.82,16.86-2.62,23.03-10.25,3.7-4.58,5.73-10.12,7.09-15.67,1.12-4.55,1.74-9.15,2.32-13.79.13-1.02.22-2.04.46-3.05.11-.46.19-.88.62-1.2.38-.28.8-.34,1.23-.42.65-.12,1.31-.19,1.96-.27,3.22-.39,7.61-1.39,10.6-2.73,1.65-.74,2.02-2.04,2.55-3.51.61-1.71,1.13-3.44,1.66-5.17.74-2.44,1.47-4.89,2.18-7.34.81-2.78,1.6-5.55,2.38-8.34.26-.94.53-1.89.74-2.84.13-.58.27-1.14.23-1.75-.07-1.12-1-.68-1.71-.33-.79.39-1.52.87-2.26,1.35-1.05.69-2.08,1.41-3.1,2.15-4.07,2.92-8.03,5.98-12,9.03-.7.54-1.39,1.09-2.12,1.59-.23.16-.44.33-.74.37-.37.05-.57-.36-.72-.58-.61-.95-1.02-1.98-1.46-3.01-1.88-4.34-3.58-8.75-5.29-13.15-.56-1.43-1.1-2.87-1.67-4.29-.18-.45-.34-1.07-.68-1.47-.15-.18-.28-.07-.39.08-.39.5-.64,1.07-.93,1.62-1.57,2.96-3.13,5.92-4.71,8.87-1.88,3.5-3.74,7.01-5.72,10.45-.4.69-.78,1.38-1.25,2.03-.09.12-.17.24-.29.35-.05.04-.08.09-.15.07-.14-.04-.13-.16-.18-.25-.2-.31-.45-.57-.7-.84-.71-.76-1.46-1.47-2.22-2.18-1.48-1.39-2.99-2.75-4.51-4.11-1.89-1.68-3.79-3.33-5.72-4.96-1.61-1.35-3.23-2.7-4.94-3.93-1.77-1.27-3.39-2.38-3.02.49.22,1.73.69,3.4,1.1,5.09.64,2.58,1.31,5.15,2,7.72.82,3.06,1.66,6.1,2.56,9.14.57,1.92,1.1,3.84,1.91,5.69.99,2.26,1.79,2.46,3.99,3.11,2.31.68,4.62,1.24,7,1.65.87.15,1.74.26,2.62.33.55.05,1.09.07,1.64.15.31.04.6.01.82.34.27.4.12,1.05.08,1.44-.15,1.31-.41,2.6-.64,3.89-.39,2.16-.81,4.31-1.27,6.46-.47,2.21-.98,4.41-1.63,6.58-.46,1.53-.88,3-1.92,4.31-.95,1.19-2.07,1.68-3.49,2-2.25.52-4.48.51-6.75.54-4.34.05-8.69-.07-13.03.04-4.1.1-8.14.45-12.17,1.27-4.06.82-7.94,2.06-11.78,3.57-.2.08-.39.16-.59.23-.07.02-.13.06-.21.03-.17-.05-.14-.37-.14-.48-.07-1.45-.01-2.9,0-4.35,0-.61-.04-1.21.03-1.81.03-.28.12-.44.41-.5.47-.1.94-.09,1.41-.13.88-.07,1.76-.16,2.63-.28,1.82-.25,5.14-.84,6.91-1.4,1.1-.35,1.77-.99,2.4-1.91.55-.81.98-1.68,1.4-2.56.65-1.37,1.24-2.77,1.82-4.18,1.49-3.63,2.87-7.3,4.19-10.99.51-1.43,1.02-2.86,1.48-4.31.26-.84.57-1.64.56-2.55,0-1.64-2.05-.4-2.92.07-2.91,1.58-5.61,3.48-8.35,5.32-2.32,1.56-4.59,3.18-7,4.62-.51.3-1.01.6-1.56.84-.25.11-.49.21-.77.24-.17.02-.32.05-.49-.02-.18-.08-.28-.22-.4-.36-.28-.34-.51-.71-.75-1.08-1.19-1.9-2.23-3.88-3.29-5.86-2.37-4.44-4.65-8.92-6.93-13.4Z"/>
  <rect class="cls-1" x="163.12" y="528.42" width="47.62" height="101.62"/>
  <polygon class="cls-1" points="264.74 589.54 318.74 589.54 318.74 528.42 217.12 528.42 217.12 603.86 264.74 603.86 264.74 589.54"/>
  <rect class="cls-1" x="217.12" y="663.42" width="47.62" height="47.62"/>
  <rect class="cls-1" x="217.12" y="609.42" width="47.62" height="47.62"/>
  <rect class="cls-1" x="163.12" y="636.42" width="47.62" height="47.62"/>
  <rect class="cls-1" x="271.12" y="703.92" width="47.62" height="47.62"/>
  <rect class="cls-1" x="271.12" y="649.92" width="47.62" height="47.62"/>
  <rect class="cls-1" x="271.12" y="595.92" width="47.62" height="47.62"/>
  <path class="cls-1" d="M210.74,756.72v-12.3h-31.32c10.21,4.76,20.61,8.84,31.32,12.3Z"/>
  <path class="cls-1" d="M166.63,738.04h44.12v-47.62h-47.62v45.73c1.16.64,2.33,1.27,3.5,1.89Z"/>
  <path class="cls-1" d="M243.21,765.04h21.53v-47.62h-47.62v41.27c8.6,2.55,17.28,4.66,26.09,6.35Z"/>
  <path class="cls-1" d="M318.74,768.83v-10.91h-47.62v10.99c15.94,1.37,31.69,1.35,47.62-.08Z"/>
</svg>